<?xml version="1.0" encoding="iso-8859-1"?>
<!-- Generator: Adobe Illustrator 19.0.0, SVG Export Plug-In . SVG Version: 6.00 Build 0)  -->
<svg version="1.1" id="Layer_1" xmlns="http://www.w3.org/2000/svg" xmlns:xlink="http://www.w3.org/1999/xlink" x="0px" y="0px"
	 viewBox="0 0 512 512" style="enable-background:new 0 0 512 512;" xml:space="preserve">
<g>
	<g>
		<path d="M507.578,211.894l-112.9-124.19c-2.411-24.037-17.535-45.952-43.21-62.293C325.716,9.025,291.813,0,255.999,0
			c-35.812,0-69.716,9.025-95.467,25.412c-25.676,16.339-40.799,38.256-43.211,62.293L4.422,211.894l17.509,87.539l80.945-50.59
			l-20.54,225.943L255.999,512l173.664-37.214l-20.54-225.943l80.946,50.59L507.578,211.894z M239.316,474.3l-121.074-25.945
			l23.948-263.434l-97.009,60.631l-4.736-23.682l98.027-107.829l100.844,36.67V474.3z M239.316,61.172v54.036l-87.169-31.696
			c9.265-28.114,53.062-50.146,103.852-50.146s94.588,22.032,103.852,50.146l-87.169,31.696V61.172H239.316z M466.817,245.553
			l-97.009-60.631l23.948,263.434L272.683,474.3V150.712l100.845-36.67l98.027,107.828L466.817,245.553z"/>
	</g>
</g>
<g>
	<g>
		<path d="M317.172,200.199c-12.266,0-22.244,9.979-22.244,22.244s9.979,22.244,22.244,22.244c12.266,0,22.244-9.979,22.244-22.244
			S329.438,200.199,317.172,200.199z"/>
	</g>
</g>
<g>
	<g>
		<path d="M317.172,278.055c-12.266,0-22.244,9.979-22.244,22.244c0,12.264,9.978,22.242,22.24,22.242h0.004
			c12.266,0,22.244-9.978,22.244-22.242C339.416,288.034,329.439,278.055,317.172,278.055z"/>
	</g>
</g>
<g>
	<g>
		<path d="M317.172,355.91c-12.266,0-22.244,9.979-22.244,22.244c0,12.264,9.978,22.242,22.24,22.242h0.004
			c12.266,0,22.244-9.978,22.244-22.242C339.416,365.889,329.439,355.91,317.172,355.91z"/>
	</g>
</g>
<g>
</g>
<g>
</g>
<g>
</g>
<g>
</g>
<g>
</g>
<g>
</g>
<g>
</g>
<g>
</g>
<g>
</g>
<g>
</g>
<g>
</g>
<g>
</g>
<g>
</g>
<g>
</g>
<g>
</g>
</svg>
