<?xml version="1.0" encoding="iso-8859-1"?>
<!-- Generator: Adobe Illustrator 18.0.0, SVG Export Plug-In . SVG Version: 6.00 Build 0)  -->
<!DOCTYPE svg PUBLIC "-//W3C//DTD SVG 1.1//EN" "http://www.w3.org/Graphics/SVG/1.1/DTD/svg11.dtd">
<svg version="1.1" id="Capa_1" xmlns="http://www.w3.org/2000/svg" xmlns:xlink="http://www.w3.org/1999/xlink" x="0px" y="0px"
	 viewBox="0 0 230 230" style="enable-background:new 0 0 230 230;" xml:space="preserve">
<path d="M114.999,0c0,0-91.708,87.645-91.708,138.293c0,50.648,41.06,91.707,91.708,91.707c50.649,0,91.709-41.059,91.709-91.707
	C206.708,87.645,114.999,0,114.999,0z M140.816,190.834c-8.807,5.863-19.375,9.283-30.746,9.283
	c-30.689,0-55.568-24.877-55.568-55.568c0-11.369,3.422-21.939,9.283-30.744c-0.25,2.398-0.377,4.832-0.377,7.295
	c0,38.723,31.391,70.113,70.111,70.113C135.983,191.213,138.417,191.084,140.816,190.834z"/>
<g>
</g>
<g>
</g>
<g>
</g>
<g>
</g>
<g>
</g>
<g>
</g>
<g>
</g>
<g>
</g>
<g>
</g>
<g>
</g>
<g>
</g>
<g>
</g>
<g>
</g>
<g>
</g>
<g>
</g>
</svg>
