<?xml version="1.0" encoding="iso-8859-1"?>
<!-- Generator: Adobe Illustrator 19.0.0, SVG Export Plug-In . SVG Version: 6.00 Build 0)  -->
<svg version="1.1" id="Layer_1" xmlns="http://www.w3.org/2000/svg" xmlns:xlink="http://www.w3.org/1999/xlink" x="0px" y="0px"
	 viewBox="0 0 512 512" style="enable-background:new 0 0 512 512;" xml:space="preserve">
<g>
	<g>
		<path d="M442.153,234.099c39.924-20.596,67.288-62.259,67.288-110.194C509.441,55.584,453.858,0,385.536,0
			c-26.965,0-52.603,8.516-74.144,24.624c-16.243,12.147-29.346,28.331-37.979,46.591c-11.066-2.376-22.544-3.63-34.309-3.63
			c-84.855,0-154.803,65.039-162.606,147.886c-41.997,7.643-73.94,44.491-73.94,88.66c0,49.688,40.425,90.113,90.113,90.113h28.16
			v-33.792h-28.16c-31.055,0-56.32-25.265-56.32-56.32s25.265-56.32,56.32-56.32h16.896v-16.896
			c0-71.427,58.11-129.537,129.537-129.537s129.537,58.11,129.537,129.537v16.896h16.896c31.055,0,56.32,25.265,56.32,56.32
			s-25.265,56.32-56.32,56.32h-28.161v33.792h28.161c49.688,0,90.113-40.425,90.113-90.113
			C475.65,275.877,462.567,250.634,442.153,234.099z M401.404,212.59c-6.549-58.403-44.012-107.588-95.602-130.759
			c15.346-29.273,45.649-48.039,79.735-48.039c49.688,0,90.113,40.425,90.113,90.113C475.65,168.178,443.548,205.069,401.404,212.59
			z"/>
	</g>
</g>
<g>
	<g>
		<polygon points="332.627,337.923 272.897,337.923 272.897,231.43 156.845,405.507 216.576,405.507 216.576,512 		"/>
	</g>
</g>
<g>
</g>
<g>
</g>
<g>
</g>
<g>
</g>
<g>
</g>
<g>
</g>
<g>
</g>
<g>
</g>
<g>
</g>
<g>
</g>
<g>
</g>
<g>
</g>
<g>
</g>
<g>
</g>
<g>
</g>
</svg>
