<?xml version="1.0" encoding="iso-8859-1"?>
<!-- Generator: Adobe Illustrator 19.0.0, SVG Export Plug-In . SVG Version: 6.00 Build 0)  -->
<svg version="1.1" id="Capa_1" xmlns="http://www.w3.org/2000/svg" xmlns:xlink="http://www.w3.org/1999/xlink" x="0px" y="0px"
	 viewBox="0 0 60 60" style="enable-background:new 0 0 60 60;" xml:space="preserve">
<g>
	<path d="M30,0C13.458,0,0,13.458,0,30s13.458,30,30,30s30-13.458,30-30S46.542,0,30,0z M30,58C14.561,58,2,45.439,2,30
		S14.561,2,30,2s28,12.561,28,28S45.439,58,30,58z"/>
	<path d="M17,14c-2.206,0-4,1.794-4,4s1.794,4,4,4s4-1.794,4-4S19.206,14,17,14z M17,20c-1.103,0-2-0.897-2-2s0.897-2,2-2
		s2,0.897,2,2S18.103,20,17,20z"/>
	<path d="M34.789,17.1H41c0.552,0,1-0.447,1-1s-0.448-1-1-1h-6.211C26.496,15.1,20,21.886,20,30.55S26.496,46,34.789,46H41
		c0.552,0,1-0.447,1-1s-0.448-1-1-1h-6.211C27.498,44,22,38.218,22,30.55S27.498,17.1,34.789,17.1z"/>
</g>
<g>
</g>
<g>
</g>
<g>
</g>
<g>
</g>
<g>
</g>
<g>
</g>
<g>
</g>
<g>
</g>
<g>
</g>
<g>
</g>
<g>
</g>
<g>
</g>
<g>
</g>
<g>
</g>
<g>
</g>
</svg>
